<svg width="75" height="80" viewBox="0 0 75 80" fill="none" xmlns="http://www.w3.org/2000/svg">
<path d="M27.3176 79.4736C23.7019 77.8901 24.1538 24.5033 27.3176 21.7887C30.4813 19.0742 74.9997 45.089 74.9997 50.5181C74.9997 55.9472 30.9333 81.0571 27.3176 79.4736Z" fill="#5457CD"/>
<path d="M2.54512 67.6558C-1.07061 66.0785 -0.61862 12.901 2.54512 10.1971C5.70886 7.49323 50.2272 33.406 50.2272 38.8138C50.2272 44.2216 6.16085 69.2331 2.54512 67.6558Z" fill="#06B6D4"/>
<path d="M24.1359 57.8828C20.5202 56.2993 20.9722 2.91247 24.1359 0.197913C27.2997 -2.51664 71.8181 23.4982 71.8181 28.9273C71.8181 34.3563 27.7517 59.4663 24.1359 57.8828Z" fill="#EC4899"/>
</svg>
